<?xml version="1.0" standalone="no"?>
<!DOCTYPE svg PUBLIC "-//W3C//DTD SVG 20010904//EN"
 "http://www.w3.org/TR/2001/REC-SVG-20010904/DTD/svg10.dtd">
<svg version="1.0" xmlns="http://www.w3.org/2000/svg"
 width="1088.000000pt" height="1600.000000pt" viewBox="0 0 1088.000000 1600.000000"
 preserveAspectRatio="xMidYMid meet">

<g transform="translate(0.000000,1600.000000) scale(0.100000,-0.100000)"
fill="#000000" stroke="none">
<path d="M2470 15989 c-616 -35 -1227 -310 -1677 -755 -297 -294 -524 -658
-651 -1044 -44 -133 -71 -237 -105 -415 l-22 -110 -3 -4395 c-2 -3138 0 -4426
8 -4505 52 -524 280 -1007 660 -1399 160 -165 315 -286 712 -555 189 -127 550
-376 803 -552 253 -176 537 -373 630 -438 94 -65 334 -232 535 -371 201 -140
525 -365 720 -500 195 -136 459 -318 585 -406 660 -459 761 -528 775 -528 14
0 115 69 775 528 127 88 390 270 585 406 195 135 519 360 720 500 201 139 442
306 535 371 94 65 377 262 630 438 253 176 614 425 803 552 189 128 400 278
470 334 520 418 839 991 902 1620 8 79 10 1367 8 4505 l-3 4395 -22 110 c-85
441 -213 755 -441 1084 -345 498 -873 876 -1443 1035 -227 63 -347 83 -575 96
-201 12 -5710 11 -5914 -1z m5965 -109 c617 -50 1169 -310 1606 -757 395 -404
617 -859 711 -1458 17 -109 25 -8573 8 -8798 -30 -412 -151 -771 -369 -1098
-205 -307 -428 -511 -906 -829 -186 -124 -313 -211 -920 -634 -126 -88 -369
-256 -540 -374 -170 -119 -440 -306 -600 -417 -159 -111 -535 -372 -835 -580
-300 -208 -678 -471 -840 -584 -162 -113 -302 -205 -310 -205 -8 0 -148 92
-310 205 -162 113 -540 376 -840 584 -300 208 -675 469 -835 580 -159 111
-429 298 -600 417 -170 118 -413 286 -540 374 -607 423 -734 510 -920 634
-478 318 -701 522 -906 829 -218 327 -339 686 -369 1098 -17 225 -9 8689 8
8798 78 500 245 896 532 1260 89 113 277 303 393 396 400 324 877 517 1373
558 145 12 5862 13 6009 1z"/>
<path d="M2444 15469 c-474 -42 -953 -269 -1299 -614 -167 -168 -300 -354
-406 -570 -119 -243 -187 -491 -209 -759 -14 -173 -14 -8492 0 -8659 38 -461
229 -861 567 -1188 119 -116 273 -232 567 -428 122 -81 385 -261 586 -401 201
-139 527 -366 725 -503 198 -138 551 -383 785 -545 234 -163 585 -407 780
-542 195 -136 476 -331 624 -433 147 -103 272 -187 276 -187 4 0 129 84 276
187 148 102 429 297 624 433 195 135 546 379 780 542 234 162 587 407 785 545
198 137 524 364 725 503 201 140 464 320 586 401 294 196 448 312 567 428 338
327 529 727 567 1188 14 167 14 8486 0 8659 -60 746 -509 1403 -1185 1735
-237 116 -486 186 -745 209 -139 12 -5838 11 -5976 -1z m5982 -110 c470 -46
895 -248 1230 -583 342 -343 541 -768 584 -1246 14 -162 14 -8512 -1 -8670
-44 -491 -281 -917 -686 -1238 -56 -44 -211 -153 -345 -243 -134 -89 -376
-255 -538 -367 -162 -113 -457 -318 -655 -455 -198 -138 -441 -306 -540 -375
-411 -286 -736 -512 -1270 -882 -209 -145 -465 -324 -570 -397 -104 -73 -192
-133 -195 -133 -3 0 -90 60 -195 133 -104 73 -361 252 -570 397 -534 370 -859
596 -1270 882 -99 69 -342 237 -540 375 -198 137 -493 342 -655 455 -162 112
-404 278 -538 367 -134 90 -289 199 -345 243 -405 321 -642 747 -686 1238 -15
158 -15 8508 -1 8670 59 653 427 1231 999 1568 233 137 529 233 801 261 131
13 5852 13 5986 0z"/>
<path d="M5392 15072 c-24 -81 -57 -191 -73 -244 l-30 -98 -217 -1 c-119 0
-239 -4 -265 -7 l-49 -7 201 -139 c111 -76 204 -143 207 -147 3 -5 -29 -120
-71 -255 -41 -136 -74 -249 -72 -251 2 -2 93 64 202 147 109 82 200 150 202
150 3 0 101 -67 219 -150 117 -82 216 -150 219 -150 2 0 0 10 -5 23 -5 12 -44
120 -86 240 -67 194 -74 220 -60 230 288 214 405 304 406 311 0 5 -35 6 -77 2
-96 -7 -421 -11 -428 -5 -2 3 -41 113 -86 244 -45 132 -84 243 -88 247 -3 4
-25 -59 -49 -140z m115 -258 l58 -177 173 6 c94 4 172 4 172 2 0 -2 -64 -53
-142 -111 -79 -59 -145 -109 -147 -110 -2 -2 21 -77 52 -166 31 -89 56 -163
54 -164 -1 -1 -69 45 -151 102 -82 58 -154 103 -160 100 -6 -2 -67 -47 -136
-100 -68 -52 -126 -93 -128 -91 -3 2 19 81 48 175 29 95 49 175 44 179 -5 5
-67 47 -137 96 -71 48 -126 90 -123 92 3 3 85 9 183 12 l177 6 34 110 c18 61
40 134 48 163 9 28 17 52 19 52 2 0 30 -79 62 -176z"/>
<path d="M6674 14904 c15 -181 96 -355 252 -538 l55 -66 -43 0 c-52 -1 -235
-33 -245 -44 -10 -10 118 -126 226 -203 47 -35 135 -87 194 -117 117 -58 117
-56 10 -77 -35 -6 -63 -15 -63 -20 0 -13 169 -157 246 -209 39 -27 99 -64 134
-83 l63 -35 -39 -7 c-76 -13 -149 -28 -162 -35 -30 -15 196 -200 351 -288 88
-50 89 -51 55 -56 -101 -17 -152 -26 -155 -29 -2 -2 45 -51 104 -108 92 -89
210 -178 337 -254 13 -7 -3 -11 -61 -13 -43 -2 -95 -7 -116 -10 l-39 -7 65
-76 c74 -86 170 -174 260 -236 l61 -43 -117 0 c-77 0 -117 -4 -117 -11 0 -14
99 -143 157 -204 58 -60 137 -132 178 -162 l30 -22 -112 6 c-72 4 -113 2 -113
-4 0 -5 32 -58 70 -117 76 -114 160 -210 253 -288 32 -26 57 -48 55 -48 -2 0
-38 7 -81 15 -86 16 -157 20 -157 7 0 -5 20 -48 45 -97 62 -121 144 -232 246
-335 l87 -87 -62 19 c-64 20 -217 50 -223 44 -8 -7 64 -173 104 -242 53 -89
124 -185 186 -252 l50 -52 -44 15 c-53 19 -197 55 -221 55 -16 0 -16 -4 3 -52
52 -135 139 -282 228 -388 25 -30 39 -51 31 -48 -118 49 -143 58 -147 54 -7
-7 25 -148 53 -232 32 -95 75 -191 116 -256 19 -29 38 -59 42 -66 4 -7 -33 7
-83 32 -50 25 -93 46 -97 46 -15 0 29 -219 67 -332 30 -88 104 -230 152 -290
l40 -51 -44 28 c-81 50 -253 125 -263 114 -6 -5 28 -188 47 -254 36 -125 95
-252 156 -335 16 -21 -12 -1 -74 54 l-100 89 -8 -49 c-11 -66 -1 -261 18 -363
14 -72 37 -145 71 -226 4 -11 -23 9 -62 44 -38 35 -86 77 -106 93 l-38 30 -2
-74 c-5 -183 13 -352 47 -448 l16 -45 -70 69 c-62 62 -71 67 -78 50 -4 -10 -8
-104 -8 -209 1 -146 5 -206 18 -258 9 -38 17 -70 17 -72 0 -2 -41 39 -92 91
-76 79 -93 92 -99 77 -4 -10 -12 -75 -19 -144 -18 -183 8 -408 65 -564 4 -11
-14 16 -40 60 -57 100 -157 240 -170 240 -14 0 -73 -214 -90 -327 -8 -54 -15
-137 -15 -185 l0 -88 -39 67 c-56 96 -103 160 -112 151 -4 -5 -23 -55 -43
-112 -42 -119 -72 -260 -82 -380 l-7 -84 -21 59 c-28 76 -97 224 -105 224 -4
0 -33 -52 -64 -116 -66 -131 -120 -286 -138 -389 -17 -106 -20 -107 -39 -13
-10 48 -28 117 -40 153 -22 65 -22 66 -42 48 -37 -33 -166 -237 -212 -333
-126 -268 -149 -487 -69 -658 14 -29 23 -55 22 -56 -17 -13 -119 -66 -126 -66
-6 0 -3 28 8 66 43 153 47 356 13 559 -17 98 -61 265 -74 278 -18 19 -167
-203 -245 -366 -98 -204 -130 -339 -122 -506 2 -58 11 -125 20 -147 l15 -41
-54 -15 -54 -15 -6 36 c-30 181 -116 321 -233 378 -50 25 -66 28 -156 27 -95
0 -171 -16 -392 -80 -12 -3 -43 1 -70 10 -215 70 -477 20 -646 -125 -63 -54
-131 -152 -160 -229 l-24 -62 -23 118 c-110 577 -286 960 -489 1063 -52 27
-57 27 -69 -8 l-10 -29 -67 24 c-72 26 -171 32 -238 13 -22 -6 -41 -8 -44 -5
-3 3 -14 47 -24 98 -56 275 -130 470 -225 592 -53 68 -121 119 -148 112 -10
-3 -31 5 -46 16 -16 11 -52 29 -82 39 l-53 18 -12 178 c-24 359 -79 564 -189
698 -23 29 -52 71 -63 94 -30 58 -74 104 -124 131 l-44 23 -6 196 c-10 312
-65 558 -173 772 -19 38 -39 67 -43 64 -5 -2 -16 14 -26 38 -9 23 -28 60 -42
81 l-25 39 26 77 c97 288 168 709 152 908 -7 80 -31 194 -56 257 -10 28 -12
28 -22 11 -9 -16 -14 -9 -33 50 -12 38 -27 79 -33 91 -11 19 -3 39 57 160 209
422 307 792 271 1031 -12 80 -28 128 -31 92 -1 -8 -9 23 -19 70 -10 47 -21 99
-25 115 -5 25 2 42 46 110 125 191 268 459 332 620 33 85 67 218 67 266 0 19
-2 20 -17 8 -15 -13 -16 -10 -10 30 5 38 13 51 54 85 165 138 382 374 445 486
32 56 70 159 63 170 -3 4 6 32 20 62 14 30 33 87 43 126 17 69 19 73 147 209
440 466 625 705 628 811 1 26 -6 40 -25 57 -24 21 -100 41 -117 31 -4 -3 -109
-10 -232 -16 -279 -12 -402 -25 -552 -56 -124 -26 -289 -80 -367 -119 l-46
-23 -59 20 c-71 24 -142 20 -229 -13 -65 -24 -187 -102 -230 -148 -23 -23 -35
-29 -56 -24 -25 5 -32 -2 -83 -79 -68 -102 -188 -341 -253 -504 l-48 -122 -49
-5 c-107 -13 -224 -96 -293 -208 -28 -45 -42 -59 -60 -59 -21 0 -26 -10 -48
-82 -94 -313 -168 -729 -211 -1199 l-6 -67 -47 -6 c-144 -19 -281 -181 -328
-389 -17 -71 -20 -78 -40 -73 -19 5 -22 1 -28 -41 -16 -121 2 -419 40 -653 22
-133 88 -418 109 -472 5 -12 1 -20 -11 -24 -54 -16 -144 -66 -185 -103 -84
-73 -139 -184 -154 -306 -7 -53 -9 -56 -31 -51 -23 6 -24 4 -24 -51 0 -71 25
-288 46 -403 58 -312 157 -641 254 -842 l32 -68 -47 -52 c-96 -107 -145 -227
-149 -367 -3 -76 -5 -85 -25 -92 -26 -10 -26 -14 4 -126 92 -344 301 -707 530
-922 l67 -63 -35 -76 c-58 -127 -71 -238 -42 -354 16 -58 16 -59 -7 -78 l-23
-19 30 -58 c128 -250 383 -516 677 -707 l87 -57 -30 -48 c-21 -34 -35 -75 -45
-136 -19 -106 -9 -181 38 -293 l30 -73 -22 -24 -23 -24 65 -64 c155 -152 402
-256 679 -287 159 -17 150 -14 134 -53 -74 -178 -9 -409 158 -558 41 -36 41
-37 24 -63 -17 -26 -17 -26 10 -36 15 -6 39 -15 53 -20 129 -49 315 -52 631
-10 123 17 240 33 259 36 l35 6 -45 -30 c-88 -60 -84 -53 -77 -139 13 -159 90
-313 193 -384 l44 -30 83 54 c45 30 122 76 171 102 139 76 381 185 384 175 4
-12 -4 -23 -186 -268 -80 -107 -140 -197 -136 -202 9 -8 169 -58 254 -79 177
-43 446 -55 601 -25 46 9 86 17 89 19 5 3 -5 124 -25 300 -4 40 1 30 24 -50
39 -132 73 -219 125 -324 53 -106 79 -151 88 -151 3 0 55 20 114 45 126 53
272 129 356 186 75 51 201 161 227 198 l20 28 -184 133 c-102 73 -185 135
-185 136 0 2 28 -7 63 -20 137 -52 248 -101 375 -166 l134 -69 43 44 c93 93
147 266 130 421 l-7 64 -71 34 c-40 19 -103 43 -142 55 -88 25 -291 67 -370
76 -33 4 -63 9 -67 12 -4 2 4 28 19 58 26 53 27 54 92 70 36 8 118 32 182 51
l115 36 65 -32 c80 -41 174 -73 281 -97 68 -15 127 -18 323 -18 254 1 346 12
547 66 l80 22 -53 33 c-86 54 -282 152 -377 189 -92 35 -268 85 -302 85 -11 0
-20 5 -20 11 0 13 6 12 145 -27 94 -26 112 -27 310 -28 245 0 349 16 594 91
77 24 82 27 65 40 -65 49 -326 160 -468 198 -85 23 -87 24 -31 17 33 -4 134
-7 225 -6 129 0 190 5 280 23 125 25 299 80 425 135 l80 35 -50 21 c-107 46
-285 102 -395 124 -124 25 -123 28 14 41 102 10 299 67 423 122 147 66 395
215 381 228 -20 21 -344 65 -478 65 l-95 1 90 24 c219 58 436 176 644 350 106
88 107 83 -19 106 -46 8 -144 14 -252 14 l-177 -1 88 32 c104 37 187 80 286
148 153 106 305 252 404 391 l34 48 -94 -7 c-83 -7 -216 -26 -289 -43 -14 -3
16 22 65 54 132 87 226 166 350 294 96 100 235 282 235 310 0 22 -227 3 -303
-27 -10 -3 51 63 135 147 84 85 178 190 210 234 55 79 128 211 128 234 0 6
-15 11 -33 11 -53 0 -218 -31 -269 -50 l-48 -18 89 102 c48 55 114 137 146
181 55 78 165 286 165 313 0 29 -208 -11 -325 -63 l-57 -25 31 38 c130 155
216 281 283 417 38 74 98 223 98 241 0 19 -189 -20 -250 -51 -18 -9 -34 -15
-36 -12 -2 2 26 48 62 103 37 54 93 152 125 217 55 112 108 252 98 261 -14 13
-186 -29 -281 -69 -10 -4 6 28 38 76 86 131 174 315 209 436 6 20 3 22 -32 17
-80 -11 -170 -36 -226 -63 -32 -15 -56 -25 -54 -22 37 69 131 271 146 316 30
93 61 216 61 246 l0 27 -72 -18 c-39 -11 -98 -32 -130 -48 -32 -16 -57 -26
-56 -23 77 154 112 234 137 311 36 111 65 239 57 247 -18 18 -208 -49 -275
-96 -39 -28 -46 -26 -23 7 38 54 114 216 147 316 33 97 82 313 73 321 -14 15
-191 -52 -258 -97 -19 -13 -40 -27 -47 -31 -7 -4 1 19 17 52 43 86 86 207 114
319 29 118 51 240 44 247 -10 10 -164 -45 -220 -79 -32 -19 -58 -33 -58 -32 0
1 11 31 25 65 38 94 82 274 100 411 9 67 14 124 13 126 -7 6 -97 -25 -149 -50
-57 -29 -127 -76 -173 -116 l-32 -29 17 69 c30 119 42 264 36 447 -3 95 -8
177 -12 183 -10 16 -120 -47 -183 -105 l-55 -50 6 35 c24 128 15 525 -13 570
-18 29 -171 -82 -249 -180 l-36 -45 0 170 c0 98 -6 200 -13 240 -25 132 -65
285 -75 285 -17 0 -111 -80 -154 -131 -24 -28 -55 -73 -70 -100 -31 -54 -43
-61 -43 -25 0 44 -51 220 -94 329 -45 110 -151 307 -165 307 -25 0 -123 -160
-156 -255 -5 -15 -15 4 -39 75 -37 108 -98 233 -163 335 -55 85 -166 235 -174
235 -13 0 -70 -98 -89 -152 -21 -61 -40 -163 -40 -221 l0 -39 -47 35 c-145
104 -458 267 -656 341 -53 20 -100 36 -104 36 -3 0 -3 -39 1 -86z m196 -73
c149 -65 351 -174 472 -255 151 -101 154 -104 167 -165 9 -43 54 -171 85 -243
6 -12 -14 -7 -84 23 -104 45 -256 87 -345 96 -58 5 -62 8 -122 69 -123 127
-215 268 -257 396 -27 80 -32 118 -17 118 6 0 51 -18 101 -39z m817 -75 c159
-239 245 -485 230 -651 -7 -71 -28 -137 -46 -143 -20 -7 -133 116 -178 193
-89 154 -126 288 -127 455 0 104 14 185 41 233 9 16 20 4 80 -87z m-4702 -80
c39 -17 61 -47 70 -98 4 -21 11 -38 15 -38 4 0 28 9 53 20 128 57 276 23 350
-81 58 -81 59 -196 1 -327 -13 -30 -23 -56 -22 -57 2 -1 18 -10 36 -19 18 -9
37 -28 42 -42 18 -46 11 -145 -15 -218 -21 -60 -87 -176 -100 -176 -2 0 -13
17 -24 38 -30 60 -45 153 -38 252 6 87 5 90 -20 110 -30 24 -51 25 -72 6 -38
-35 -120 -66 -170 -66 -84 0 -140 42 -183 135 -20 43 -23 66 -23 165 0 63 4
131 8 151 8 34 6 38 -26 63 l-36 27 -68 -49 c-135 -98 -169 -103 -193 -34
l-15 44 65 61 c125 118 272 172 365 133z m5284 -516 c46 -139 61 -222 61 -336
0 -108 -21 -201 -58 -257 l-19 -28 -43 48 c-50 57 -122 202 -145 293 -52 204
-30 441 52 566 l18 28 51 -110 c29 -60 66 -152 83 -204z m-1074 44 c119 -21
253 -65 350 -115 131 -67 261 -168 236 -183 -27 -17 -175 -26 -256 -16 -209
26 -398 107 -609 263 -58 43 -66 52 -50 58 34 14 237 9 329 -7z m1462 -246
c13 -69 18 -140 18 -273 0 -196 -15 -276 -70 -386 -26 -50 -90 -129 -105 -129
-14 0 -59 105 -76 176 -20 89 -20 267 1 369 28 136 83 251 159 333 47 51 45
54 73 -90z m-686 -91 c14 -17 32 -50 39 -72 7 -22 19 -52 27 -67 17 -35 11
-34 -55 1 -44 24 -128 108 -118 118 2 2 13 5 25 8 30 6 41 14 41 31 0 22 13
17 41 -19z m-304 -97 c145 -37 327 -124 428 -205 39 -31 71 -60 73 -64 3 -10
-121 -31 -186 -31 -71 0 -214 27 -301 56 -112 38 -276 126 -377 202 l-89 67
40 7 c88 15 289 -1 412 -32z m-5500 -1 c36 -13 98 -74 114 -110 6 -16 15 -29
19 -29 4 0 38 14 76 32 119 56 240 41 299 -36 50 -66 64 -184 39 -327 -6 -35
-5 -36 31 -42 115 -19 193 -198 155 -356 -14 -61 -28 -69 -69 -45 -59 35 -116
136 -129 229 -6 43 -10 49 -45 62 l-37 15 -64 -59 c-102 -96 -182 -105 -254
-30 -64 67 -105 184 -118 342 l-7 81 -36 15 -36 15 -73 -72 c-69 -69 -139
-114 -174 -114 -25 0 -50 36 -63 94 -13 54 -12 57 20 125 50 104 134 187 213
211 39 12 106 12 139 -1z m6822 -331 c2 -290 -62 -506 -189 -639 -30 -33 -61
-59 -67 -59 -18 0 -44 78 -53 164 -29 247 78 547 247 696 l48 42 7 -39 c4 -21
7 -95 7 -165z m-680 -46 c33 -51 57 -110 48 -118 -8 -8 -144 84 -162 108 -20
30 -19 35 13 46 53 20 68 15 101 -36z m-501 22 c118 -22 231 -59 327 -106 88
-44 209 -124 245 -163 l23 -24 -29 -8 c-16 -4 -94 -8 -174 -7 -177 1 -261 23
-445 114 -125 62 -300 183 -290 200 10 16 247 12 343 -6z m1409 -421 c-8 -261
-49 -428 -142 -567 -37 -56 -115 -131 -137 -131 -26 0 -42 79 -42 220 0 116 3
153 22 219 47 164 134 312 234 400 29 25 57 46 62 46 5 0 6 -79 3 -187z m-613
122 c-7 -38 -7 -38 -20 -14 -10 20 -10 27 3 42 22 23 26 16 17 -28z m-46 -154
c30 -56 52 -104 49 -107 -2 -3 -40 20 -83 50 -53 36 -87 68 -102 95 -21 39
-22 42 -5 47 10 3 27 9 38 13 38 15 49 4 103 -98z m-508 64 c213 -47 444 -167
563 -293 34 -35 29 -39 -73 -48 -180 -17 -423 60 -635 201 -89 60 -185 141
-185 157 0 16 238 3 330 -17z m772 -356 c-8 -32 -9 -33 -16 -11 -5 14 -3 29 5
38 17 21 21 11 11 -27z m684 -11 c-3 -13 -13 -61 -22 -108 -49 -256 -150 -468
-285 -596 -63 -60 -144 -111 -152 -96 -14 23 -17 92 -7 161 33 243 192 500
384 622 71 45 88 49 82 17z m-1408 -19 c266 -29 500 -136 691 -316 47 -45 60
-62 50 -69 -23 -14 -210 -8 -281 9 -138 34 -306 115 -429 207 -74 56 -189 159
-189 171 0 12 38 11 158 -2z m668 -117 c24 -57 44 -105 44 -108 0 -2 -25 16
-55 40 -30 25 -64 50 -75 56 -19 10 -60 78 -60 99 0 11 33 19 74 17 26 -1 31
-9 72 -104z m-6687 -207 c56 -38 113 -119 152 -215 l32 -77 38 10 c111 28 206
-117 217 -330 4 -92 3 -103 -13 -110 -29 -11 -95 71 -146 181 l-44 96 -42 0
c-38 0 -42 -2 -53 -34 -22 -67 -86 -153 -136 -182 -148 -87 -354 45 -505 323
-19 35 -37 63 -40 63 -4 0 -10 -12 -14 -27 -13 -52 -72 -169 -103 -204 -48
-55 -120 -82 -203 -77 -37 2 -71 7 -75 10 -12 13 26 162 60 232 87 181 247
242 390 149 21 -13 41 -21 45 -16 4 4 23 33 43 63 48 72 90 112 158 150 49 28
62 30 126 28 59 -3 78 -8 113 -33z m6254 -79 c176 -45 336 -127 466 -240 77
-67 153 -154 145 -167 -8 -13 -107 -10 -194 5 -128 23 -256 79 -390 169 -75
51 -253 215 -272 251 -10 18 -7 19 70 12 45 -3 123 -17 175 -30z m672 -27 c-7
-20 -8 -21 -17 -4 -8 12 -7 20 3 26 18 11 22 5 14 -22z m610 -141 c-46 -177
-120 -348 -196 -453 -75 -103 -227 -225 -279 -225 -10 0 -12 22 -7 93 12 198
121 414 286 569 85 80 214 158 219 133 2 -8 -9 -61 -23 -117z m-686 33 c28
-77 40 -141 26 -141 -3 0 -32 25 -65 56 -40 39 -64 71 -75 102 -8 25 -13 47
-11 49 3 3 89 21 93 19 1 -1 15 -39 32 -85z m-561 -252 c179 -41 372 -144 510
-273 62 -59 162 -180 162 -197 0 -16 -116 -9 -194 11 -148 38 -310 131 -445
256 -60 55 -191 210 -191 225 0 10 52 2 158 -22z m772 -53 c0 -3 -4 -8 -10
-11 -5 -3 -10 -1 -10 4 0 6 5 11 10 11 6 0 10 -2 10 -4z m-86 -99 c13 -47 15
-80 10 -125 -3 -34 -10 -62 -14 -62 -19 0 -74 88 -91 148 -28 97 -31 91 62
100 12 2 21 -15 33 -61z m-206 24 c3 -10 0 -10 -16 -2 -30 16 -38 33 -11 22
13 -4 25 -14 27 -20z m897 -123 c-98 -340 -296 -620 -499 -703 l-39 -16 6 88
c7 124 56 252 149 393 55 84 176 210 254 266 70 50 147 88 152 74 2 -5 -8 -51
-23 -102z m-1290 -186 c229 -60 452 -215 593 -411 33 -46 72 -114 72 -127 0
-11 -117 6 -182 27 -143 47 -271 133 -406 273 -69 72 -192 239 -192 260 0 7
23 2 115 -22z m799 -77 c-4 -8 -10 -12 -15 -9 -11 6 -2 24 11 24 5 0 7 -7 4
-15z m-298 -48 c1 -1 5 -17 9 -35 6 -31 5 -33 -12 -23 -10 6 -34 25 -53 42
l-35 31 45 -6 c24 -4 45 -8 46 -9z m199 -9 c19 -87 23 -114 16 -127 -5 -9 -14
-42 -21 -73 -11 -48 -16 -56 -27 -46 -23 19 -31 41 -53 148 -24 114 -24 115
40 118 34 2 40 0 45 -20z m664 -214 c-95 -301 -291 -574 -481 -668 -39 -20
-74 -33 -79 -30 -24 14 7 170 55 277 62 142 203 318 330 414 57 42 195 117
203 109 2 -2 -10 -48 -28 -102z m-1172 -174 c208 -97 396 -277 497 -478 15
-30 25 -57 22 -60 -3 -3 -44 4 -90 15 -185 46 -355 162 -490 337 -64 82 -156
231 -156 252 0 17 114 -18 217 -66z m-6861 -89 c18 -11 43 -34 57 -53 28 -36
57 -131 57 -185 0 -18 2 -33 5 -33 3 0 27 11 53 25 56 30 74 31 127 6 90 -41
183 -188 207 -328 6 -40 9 -75 6 -78 -24 -24 -123 70 -186 178 l-45 78 -41 -3
-40 -3 -31 -82 c-59 -161 -128 -219 -249 -211 -123 8 -275 114 -394 275 l-47
64 -18 -63 c-54 -193 -135 -276 -277 -285 -36 -2 -70 0 -76 4 -17 12 2 137 31
200 59 131 211 223 367 223 47 0 48 0 74 52 47 92 153 190 243 223 55 21 140
18 177 -4z m7217 2 c39 -6 39 -6 51 -81 l6 -33 -70 63 c-39 34 -70 64 -70 66
0 2 10 1 23 -2 12 -4 39 -10 60 -13z m241 -56 c5 -41 3 -63 -12 -98 -10 -24
-25 -68 -32 -97 -12 -43 -16 -49 -24 -35 -10 17 -35 189 -36 245 0 27 3 29 81
36 13 2 18 -10 23 -51z m636 -175 c-106 -324 -311 -588 -524 -677 l-39 -17 5
79 c14 192 181 466 375 612 80 60 206 127 211 111 2 -5 -11 -54 -28 -108z
m-1288 -118 c225 -81 434 -240 557 -423 55 -84 88 -147 79 -156 -8 -8 -134 23
-197 49 -187 76 -384 266 -506 489 -43 78 -41 79 67 41z m505 -177 c2 -3 3
-16 1 -30 -3 -25 -3 -25 -42 13 l-39 39 37 -9 c21 -4 40 -10 43 -13z m177
-169 c-11 -37 -23 -70 -26 -74 -4 -3 -18 14 -32 39 -22 37 -26 56 -26 119 l0
76 48 9 47 8 5 -55 c4 -39 -1 -74 -16 -122z m726 81 c0 -6 -22 -56 -50 -110
-150 -301 -372 -548 -584 -651 -121 -58 -131 -53 -100 53 39 132 143 289 284
429 119 119 237 204 355 255 88 38 95 40 95 24z m-1177 -293 c166 -125 305
-322 333 -472 l7 -37 -34 7 c-53 10 -169 69 -226 115 -80 63 -158 164 -213
276 -42 86 -89 210 -90 238 0 14 147 -70 223 -127z m285 -131 l3 -48 -27 34
c-15 19 -41 49 -58 67 l-30 32 54 -18 55 -19 3 -48z m200 8 c2 -10 -22 -67
-53 -126 l-55 -107 0 131 0 130 53 -4 c42 -4 53 -8 55 -24z m723 -56 c-120
-314 -419 -676 -660 -796 -65 -33 -130 -55 -138 -48 -10 11 20 124 52 194 124
269 431 560 690 654 64 23 66 23 56 -4z m-1301 -238 c168 -112 286 -243 354
-390 30 -65 66 -178 66 -207 0 -15 -35 -4 -118 35 -135 63 -270 217 -338 384
-21 49 -74 221 -74 236 0 11 31 -6 110 -58z m370 -200 c0 -21 -2 -39 -4 -39
-2 0 -22 24 -45 54 l-41 55 45 -16 c43 -14 45 -17 45 -54z m193 -1 c-3 -25
-71 -179 -100 -227 -12 -19 -14 26 -8 128 l7 120 37 4 c20 2 43 4 52 5 12 2
15 -5 12 -30z m737 -66 c0 -5 -23 -53 -50 -106 -174 -338 -484 -653 -724 -736
-33 -11 -61 -20 -63 -20 -11 0 0 68 21 124 63 174 238 392 448 559 134 106
368 220 368 179z m-8211 -96 c28 -15 81 -55 118 -90 l68 -63 43 34 c48 36 78
41 122 18 48 -25 119 -137 120 -188 0 -26 -74 -57 -136 -57 -65 0 -115 34
-175 120 -24 33 -46 60 -49 60 -4 0 -14 -26 -24 -57 -10 -32 -37 -99 -61 -149
-113 -235 -265 -259 -504 -81 -62 46 -65 43 -75 -45 -12 -122 -82 -217 -201
-274 -38 -19 -75 -34 -82 -34 -32 0 -5 157 43 253 59 115 231 245 349 263 42
6 45 9 56 48 30 114 128 243 203 266 48 15 128 4 185 -24z m6859 -139 c88 -50
216 -166 278 -252 72 -102 144 -278 144 -353 l0 -21 -56 19 c-217 75 -388 300
-459 603 -16 69 -20 69 93 4z m382 -206 c0 -27 -4 -41 -9 -35 -17 18 -101 124
-101 127 0 2 25 -8 55 -22 54 -26 55 -26 55 -70z m192 -26 c-3 -22 -15 -56
-27 -75 -12 -19 -35 -60 -50 -89 -40 -80 -51 -52 -35 94 l12 112 53 -1 52 -1
-5 -40z m713 -186 c-135 -239 -402 -511 -640 -654 -101 -61 -194 -101 -254
-111 l-40 -6 11 38 c44 160 255 409 489 577 107 76 327 190 409 210 30 8 56
13 58 12 1 -1 -14 -31 -33 -66z m-1305 -106 c165 -176 252 -324 286 -482 14
-66 19 -171 9 -171 -14 0 -74 35 -121 71 -109 80 -197 234 -234 407 -23 110
-36 252 -22 252 6 0 42 -35 82 -77z m283 -124 c36 -19 57 -35 54 -43 -3 -7 -8
-38 -12 -69 -4 -32 -10 -57 -14 -57 -3 0 -21 28 -38 63 -18 34 -57 94 -87 133
l-53 72 45 -35 c25 -19 72 -48 105 -64z m214 -69 c27 0 29 -2 25 -33 -2 -21
-23 -57 -55 -98 -29 -35 -60 -76 -69 -89 l-18 -25 5 25 c2 14 12 68 20 120 22
125 21 123 44 110 11 -5 33 -10 48 -10z m779 -187 c-19 -49 -135 -192 -246
-303 -235 -236 -481 -394 -696 -447 -35 -9 -67 -13 -70 -10 -13 13 65 155 126
230 179 223 536 459 795 528 90 23 99 23 91 2z m-1379 -108 c146 -158 227
-295 268 -451 16 -60 21 -184 8 -184 -5 0 -33 14 -63 32 -150 86 -264 277
-298 503 -19 122 -24 195 -13 195 5 0 49 -43 98 -95z m310 -214 c17 -14 19
-21 10 -61 -9 -43 -10 -44 -20 -20 -6 14 -24 49 -40 79 l-30 54 30 -18 c16 -9
38 -25 50 -34z m-6258 -16 c53 -27 121 -134 108 -169 -9 -23 -96 -83 -140 -96
-59 -17 -108 -4 -187 51 -46 33 -72 45 -74 37 -2 -7 -9 -53 -15 -101 -22 -168
-73 -282 -150 -332 -76 -51 -211 -42 -357 25 -37 16 -70 30 -73 30 -3 0 -6
-51 -6 -113 0 -121 -6 -142 -67 -220 -43 -54 -156 -133 -170 -119 -7 7 -14 50
-16 96 -3 67 0 99 16 153 41 133 160 271 287 334 59 29 65 35 65 63 0 46 27
151 50 196 75 146 220 189 385 112 36 -18 80 -42 97 -54 20 -14 33 -18 35 -11
3 7 18 30 34 53 53 73 117 97 178 65z m6471 -32 c0 -5 -16 -26 -36 -48 -20
-22 -54 -64 -76 -92 -22 -29 -42 -53 -43 -53 -2 0 8 39 21 88 13 48 24 91 24
96 0 4 14 6 30 4 17 -3 30 -1 30 4 0 4 11 8 25 8 14 0 25 -3 25 -7z m-549
-268 c71 -94 141 -233 163 -325 16 -67 25 -214 14 -225 -9 -9 -45 11 -103 58
-153 124 -232 310 -242 567 l-4 125 56 -60 c31 -33 83 -96 116 -140z m1212 44
c-28 -48 -216 -241 -301 -310 -105 -85 -256 -183 -345 -224 -85 -39 -235 -85
-279 -85 -26 0 -29 3 -23 23 17 54 64 119 154 207 180 177 443 326 701 396
113 31 115 31 93 -7z m-1000 -193 c13 -10 15 -19 8 -37 l-9 -24 -11 29 c-7 16
-14 33 -17 37 -8 13 9 10 29 -5z m-419 -185 c78 -102 155 -247 191 -361 22
-69 28 -105 29 -192 1 -126 -5 -138 -58 -113 -129 61 -232 227 -276 445 -23
114 -36 289 -25 346 l7 39 34 -40 c19 -22 63 -78 98 -124z m613 104 c-20 -37
-146 -165 -152 -155 -3 5 6 42 20 82 14 40 27 78 30 85 2 7 25 11 59 11 54 -1
55 -1 43 -23z m-348 -377 c-12 -23 -13 -23 -27 19 l-11 33 24 -16 c20 -13 23
-19 14 -36z m830 5 c-217 -235 -511 -403 -736 -420 -83 -7 -84 -5 -52 62 66
140 272 271 549 348 83 23 228 53 269 56 8 1 -6 -20 -30 -46z m-1365 -88 c56
-97 109 -227 137 -332 39 -146 35 -343 -7 -426 l-15 -28 -30 18 c-120 70 -199
272 -199 507 0 145 39 372 60 349 4 -4 28 -44 54 -88z m651 45 c3 -5 16 -10
29 -10 12 0 25 -3 29 -6 12 -13 -22 -60 -81 -111 l-60 -52 -5 32 c-3 23 5 50
26 95 30 59 48 74 62 52z m-495 -165 c0 -5 -5 -3 -10 5 -5 8 -10 20 -10 25 0
6 5 3 10 -5 5 -8 10 -19 10 -25z m-5139 -20 c24 -8 57 -26 74 -39 29 -23 29
-24 11 -50 -34 -52 -91 -109 -123 -123 -47 -19 -93 -16 -171 12 -38 14 -72 25
-75 25 -3 0 0 -19 6 -42 6 -24 11 -110 11 -193 1 -136 -1 -155 -22 -200 -32
-69 -76 -111 -141 -136 -65 -24 -180 -35 -274 -25 -80 9 -79 7 -78 154 0 167
43 285 133 369 65 59 119 77 220 71 46 -3 91 -9 100 -13 13 -5 19 0 24 22 17
72 72 144 129 169 40 18 122 17 176 -1z m5175 -42 c15 -27 49 -71 75 -99 l48
-50 -37 -57 -38 -56 -12 68 c-6 37 -25 107 -41 154 -16 48 -28 87 -26 87 2 0
16 -21 31 -47z m-452 -210 c99 -199 143 -378 134 -550 -6 -97 -40 -233 -60
-233 -21 0 -108 94 -136 148 -51 97 -66 169 -66 332 0 102 5 170 18 229 20 96
45 181 51 181 3 0 29 -48 59 -107z m738 -33 c-7 -29 -39 -63 -76 -82 -23 -11
-67 -39 -100 -61 -32 -22 -57 -36 -55 -31 2 5 36 56 74 114 l70 106 45 -17
c25 -10 44 -23 42 -29z m271 23 c-7 -2 -19 -2 -25 0 -7 3 -2 5 12 5 14 0 19
-2 13 -5z m-104 -17 c-12 -10 -59 -15 -59 -6 0 5 14 10 32 10 17 0 29 -2 27
-4z m456 -55 l30 -7 -65 -48 c-250 -184 -522 -286 -766 -286 -118 0 -121 3
-76 66 101 138 312 241 562 273 78 10 273 11 315 2z m-1667 -213 c58 -176 67
-229 67 -408 0 -146 -3 -173 -23 -234 -26 -78 -56 -141 -72 -151 -16 -10 -80
62 -106 120 -38 80 -47 147 -41 285 7 155 33 260 111 443 9 20 20 37 25 37 5
0 22 -42 39 -92z m538 -114 c-6 -16 -8 -16 -16 -4 -6 8 -10 24 -10 35 0 18 1
18 16 3 10 -10 14 -23 10 -34z m114 -59 c7 -8 20 -15 30 -15 29 0 30 -11 2
-47 -15 -19 -60 -51 -101 -73 l-73 -39 6 41 c5 28 21 56 54 94 50 57 62 63 82
39z m-1003 -111 c14 -60 18 -122 17 -259 0 -166 -2 -187 -27 -268 -33 -106
-73 -188 -119 -241 l-34 -38 -28 40 c-102 147 -83 388 50 654 48 95 113 202
120 196 2 -3 12 -40 21 -84z m1242 72 c-10 -9 -79 -14 -74 -5 4 5 22 9 42 9
20 0 34 -2 32 -4z m-6024 -211 c0 -79 -3 -97 -28 -146 -28 -55 -101 -149 -117
-149 -4 0 -18 26 -31 58 -19 45 -24 75 -24 142 0 114 15 153 89 227 l61 61 25
-51 c20 -43 24 -67 25 -142z m6520 127 l40 -8 -45 -26 c-137 -82 -328 -156
-488 -189 -147 -32 -418 -27 -429 7 -6 19 80 98 143 131 72 38 180 71 288 89
86 14 415 12 491 -4z m-4981 -25 l39 -17 -35 -43 c-20 -23 -60 -55 -89 -71
-52 -27 -58 -28 -156 -23 -119 6 -110 19 -88 -123 19 -123 19 -253 0 -317 -34
-116 -110 -170 -293 -214 -56 -13 -102 -26 -102 -29 0 -3 16 -53 35 -111 45
-132 61 -262 46 -363 -12 -82 -26 -126 -40 -126 -14 0 -96 94 -125 144 -79
135 -67 320 28 433 l26 31 -21 36 c-26 45 -38 184 -20 239 29 87 163 252 235
289 32 16 52 19 102 15 l62 -5 6 41 c16 96 75 182 151 219 50 23 180 21 239
-5z m3777 -161 l-31 -31 0 85 0 85 31 -54 31 -54 -31 -31z m-986 -56 c23 -119
26 -365 6 -465 -22 -110 -70 -231 -123 -311 -27 -41 -53 -74 -58 -74 -14 0
-57 62 -81 116 -16 35 -24 76 -27 146 -5 111 6 183 49 316 50 151 193 412 209
381 4 -8 16 -57 25 -109z m1129 -6 l39 -27 -39 -33 c-21 -18 -46 -34 -54 -34
-8 0 -46 -11 -85 -24 -38 -14 -72 -23 -73 -21 -8 8 17 37 87 99 40 36 76 66
80 66 3 0 24 -12 45 -26z m-514 -199 c12 -20 21 -37 19 -39 -2 -1 -30 -24 -63
-50 -32 -25 -60 -45 -62 -43 -2 1 3 25 11 51 8 27 20 89 26 139 l12 90 17 -56
c10 -30 27 -72 40 -92z m720 129 c0 -2 -21 -4 -47 -4 -27 0 -43 4 -36 8 12 8
83 4 83 -4z m175 -104 c112 -18 280 -60 313 -79 30 -17 -250 -93 -412 -112
-123 -14 -339 -6 -421 16 -84 22 -145 46 -145 57 0 15 116 84 173 102 130 41
307 47 492 16z m-767 -156 l40 -27 -30 -25 c-26 -22 -44 -27 -114 -32 -48 -3
-79 -1 -74 4 21 21 126 105 132 105 3 1 24 -11 46 -25z m197 -89 l40 -13 -45
5 c-49 6 -91 23 -55 22 11 0 38 -7 60 -14z m-1667 -51 c77 -32 145 -128 177
-251 46 -175 -17 -397 -150 -530 -75 -75 -106 -84 -41 -12 129 143 176 340
126 533 -25 99 -62 167 -124 228 -51 51 -49 58 12 32z m1678 -43 c102 -21 254
-70 349 -112 l50 -22 -45 -14 c-114 -34 -226 -47 -420 -48 -194 0 -233 5 -355
42 -68 21 -165 64 -165 74 0 27 118 81 213 99 77 14 259 4 373 -19z m-2107
-103 c74 -72 102 -197 66 -298 -15 -42 -84 -164 -90 -158 -2 2 5 35 15 73 35
132 22 279 -34 387 -29 55 -16 54 43 -4z m1475 -44 c11 -7 18 -15 15 -17 -41
-32 -87 -47 -142 -47 -34 0 -93 -7 -132 -15 -38 -8 -72 -15 -74 -15 -3 0 56
31 130 68 145 75 139 74 203 26z m207 -182 c125 -33 226 -71 359 -134 100 -48
99 -49 -72 -73 -235 -33 -517 -17 -695 40 -85 28 -215 93 -220 112 -5 14 108
70 167 83 25 5 113 8 195 6 128 -3 167 -8 266 -34z m-2174 -22 c-43 -34 -70
-103 -69 -179 0 -89 30 -163 91 -232 46 -51 47 -55 33 -76 -8 -13 -20 -23 -27
-23 -22 0 -105 99 -131 154 -78 172 -40 329 91 373 40 14 44 8 12 -17z m1403
-25 c18 -19 32 -37 29 -39 -8 -7 -231 -68 -235 -63 -2 2 -1 24 2 50 l7 46 71
19 c93 27 87 27 126 -13z m-1246 -76 l1 -52 -69 -18 -68 -17 6 36 c3 20 14 48
24 62 22 30 83 62 96 50 4 -4 9 -32 10 -61z m520 -51 c-12 -92 -104 -238 -148
-238 -7 0 -21 9 -30 19 -17 18 -15 22 28 81 25 34 62 88 81 121 24 39 43 59
56 59 17 0 19 -5 13 -42z m-519 -100 c-4 -13 -17 -45 -29 -72 l-22 -50 -32 45
c-18 24 -31 51 -30 59 2 9 23 20 53 26 69 16 67 17 60 -8z m-585 -183 c31 -63
102 -139 171 -181 32 -20 59 -41 59 -46 0 -5 -37 -25 -82 -45 -128 -57 -343
-169 -430 -225 l-79 -51 -40 39 c-54 52 -96 141 -115 243 l-16 84 24 19 c37
28 146 83 233 118 61 24 241 88 252 90 0 0 11 -20 23 -45z m730 -72 c0 -3 16
-163 35 -356 20 -192 33 -352 31 -355 -9 -8 -256 -26 -263 -18 -6 6 161 705
174 729 5 9 23 9 23 0z m417 -116 c74 -102 216 -228 422 -372 61 -43 111 -82
111 -86 0 -9 -138 -122 -170 -139 -15 -8 -31 4 -100 77 -202 213 -284 349
-324 536 -10 43 25 35 61 -16z"/>
<path d="M3124 12048 c3 -29 13 -118 21 -198 44 -409 129 -597 309 -681 65
-30 177 -59 233 -59 30 0 72 -47 630 -687 328 -379 655 -755 727 -838 71 -82
138 -160 149 -172 24 -26 56 20 -258 -364 -610 -745 -734 -898 -747 -921 -7
-13 -78 -97 -158 -187 l-145 -162 -60 5 c-78 6 -137 28 -203 73 -74 50 -139
56 -199 17 -125 -83 -124 -266 4 -390 57 -56 119 -83 222 -97 l86 -12 2 -69
c2 -100 49 -190 145 -282 118 -111 241 -167 412 -185 194 -22 355 19 417 103
37 52 74 166 65 202 -12 49 -41 52 -178 18 -162 -41 -205 -46 -259 -32 -55 15
-104 66 -153 160 -37 70 -44 115 -24 153 23 45 260 338 321 399 57 56 802 852
997 1064 41 45 77 82 80 82 4 0 318 -359 730 -837 484 -562 1026 -1181 1033
-1181 5 0 57 47 115 104 100 98 106 105 91 123 -26 29 -1563 1788 -1667 1906
l-94 108 48 52 c81 88 236 254 1165 1245 493 526 894 959 893 961 -2 2 -210
14 -461 26 -336 16 -461 19 -469 11 -6 -6 -294 -357 -639 -781 -866 -1061
-895 -1096 -906 -1090 -4 3 -97 108 -206 233 -108 125 -200 229 -203 232 -3 3
-82 93 -175 200 -93 107 -184 211 -201 230 -33 36 -238 271 -329 375 -28 33
-122 140 -208 238 -150 170 -157 180 -157 220 0 62 -26 151 -68 237 -44 89
-133 184 -237 252 -71 46 -465 248 -486 248 -7 0 -9 -18 -5 -52z m229 -134
c309 -155 410 -249 472 -437 37 -114 34 -202 -9 -246 -40 -41 -105 -56 -186
-41 -256 46 -356 195 -404 600 -9 74 -19 147 -21 163 -2 15 0 27 5 27 6 0 70
-30 143 -66z m4107 -494 c129 -6 240 -12 247 -13 6 -1 -11 -27 -39 -57 -87
-94 -729 -780 -809 -865 -41 -44 -180 -192 -309 -330 -128 -137 -263 -281
-299 -320 -36 -38 -131 -140 -211 -225 -80 -85 -173 -184 -206 -220 -34 -36
-73 -78 -88 -95 l-26 -30 -60 65 -59 65 23 25 c12 14 88 99 167 189 150 171
361 410 804 911 143 162 336 380 428 485 l168 190 -52 3 c-40 2 -56 -1 -69
-15 -9 -10 -355 -399 -769 -865 -414 -467 -756 -848 -759 -848 -4 0 -26 22
-49 48 l-41 49 306 374 c169 207 514 629 767 938 l460 563 120 -6 c66 -3 226
-11 355 -16z m-2156 -2131 c21 -22 36 -45 34 -50 -2 -5 -44 -55 -94 -111 -742
-837 -917 -1033 -924 -1036 -4 -1 -14 8 -23 21 -14 22 -4 36 472 619 267 328
489 597 492 597 4 1 23 -17 43 -40z m206 -240 c0 -3 -80 -91 -177 -195 -98
-105 -302 -322 -453 -484 -151 -162 -310 -331 -352 -375 l-78 -80 -21 25 c-53
65 -53 67 -28 98 13 15 244 277 513 581 l490 554 53 -59 c29 -32 53 -62 53
-65z"/>
<path d="M2707 4566 c-18 -47 -29 -205 -24 -341 7 -164 36 -330 86 -486 16
-49 28 -89 26 -89 -1 0 -49 22 -106 49 -216 104 -374 143 -574 145 -124 1
-295 -17 -295 -32 0 -2 21 -23 48 -45 91 -79 326 -314 495 -497 540 -583 729
-755 1057 -965 95 -60 434 -235 486 -249 17 -5 35 14 110 114 49 65 93 119 98
120 4 0 34 -15 65 -34 31 -19 107 -59 169 -90 730 -367 1454 -367 2184 0 62
31 138 71 169 90 31 19 61 34 65 34 5 0 49 -54 99 -120 74 -100 93 -119 110
-114 51 14 390 189 485 249 328 210 517 382 1057 965 169 183 404 418 496 497
26 22 47 43 47 45 0 15 -171 33 -295 32 -200 -2 -358 -41 -574 -145 -57 -27
-105 -49 -106 -49 -2 0 10 40 26 89 50 156 79 322 86 486 5 136 -6 294 -24
341 -3 9 -28 -30 -67 -108 -114 -228 -233 -387 -465 -618 -150 -149 -468 -440
-489 -447 -4 -2 -47 65 -95 148 l-88 150 -37 -23 c-20 -12 -111 -72 -202 -132
-574 -383 -908 -516 -1290 -516 -382 0 -716 133 -1290 516 -91 60 -182 120
-202 132 l-37 23 -88 -150 c-48 -83 -91 -150 -95 -148 -21 7 -339 298 -489
447 -232 231 -351 390 -465 618 -39 78 -64 117 -67 108z m126 -376 c133 -202
297 -379 617 -665 118 -106 220 -198 227 -206 8 -11 -18 -62 -123 -239 -74
-124 -134 -231 -134 -238 0 -59 127 -278 285 -491 63 -85 112 -157 110 -160
-13 -13 -336 170 -478 271 -247 176 -445 361 -812 758 -98 107 -256 273 -349
368 l-170 172 106 0 c226 0 422 -64 750 -245 44 -25 83 -43 85 -41 3 2 -20 71
-50 153 -80 214 -115 372 -132 588 -4 49 -3 76 2 70 5 -5 35 -48 66 -95z
m5282 23 c-18 -216 -53 -373 -132 -586 -30 -82 -53 -151 -50 -153 2 -2 41 16
85 41 328 181 524 245 750 245 l106 0 -170 -172 c-93 -95 -251 -261 -349 -368
-445 -482 -672 -681 -997 -878 -125 -74 -286 -158 -292 -151 -3 3 36 58 85
124 170 225 289 424 304 510 5 25 -15 64 -129 255 -105 177 -131 228 -123 239
7 8 109 100 227 206 324 289 484 463 623 673 33 50 63 92 65 92 2 0 1 -35 -3
-77z m-3984 -766 c355 -232 579 -351 806 -426 337 -112 667 -112 1006 0 228
75 463 202 893 483 57 38 106 67 108 65 2 -2 96 -163 210 -358 173 -293 206
-355 194 -366 -130 -124 -404 -338 -558 -437 -488 -314 -1010 -463 -1492 -428
-482 36 -961 231 -1422 579 -133 100 -357 292 -354 303 14 38 416 707 423 704
6 -2 90 -55 186 -119z m3150 -819 c-35 -60 -163 -233 -302 -407 l-26 -32 -57
76 c-32 42 -56 78 -54 79 1 2 44 30 93 64 94 63 340 257 364 286 31 37 21 2
-18 -66z m-3455 -134 c43 -33 108 -80 144 -104 36 -24 67 -44 68 -46 2 -1 -22
-37 -54 -79 -46 -61 -60 -74 -68 -63 -6 8 -55 71 -108 140 -95 122 -238 333
-238 350 0 5 40 -25 88 -65 49 -40 124 -100 168 -133z"/>
<path d="M4330 3052 c-50 -25 -80 -74 -80 -134 0 -53 9 -75 64 -157 20 -29 39
-64 42 -77 9 -35 -14 -83 -43 -90 -36 -9 -102 24 -133 67 l-26 37 -39 -32 -38
-32 33 -38 c40 -45 114 -84 174 -92 65 -9 128 22 156 77 35 67 25 127 -34 217
-58 89 -67 131 -36 162 36 36 101 13 147 -52 l19 -28 34 35 34 35 -34 35 c-44
45 -124 85 -169 85 -20 0 -52 -8 -71 -18z"/>
<path d="M6445 3006 c-138 -64 -173 -186 -80 -276 l36 -35 129 -5 c107 -4 131
-8 149 -24 61 -55 -18 -146 -127 -146 -21 0 -22 -3 -17 -37 11 -62 11 -62 52
-56 110 17 213 116 213 205 0 52 -39 110 -90 136 -40 21 -55 23 -130 19 -103
-7 -151 6 -164 45 -17 50 47 108 120 108 24 0 26 3 20 31 -3 17 -6 38 -6 45 0
21 -49 17 -105 -10z"/>
<path d="M4591 2655 c-101 -135 -182 -247 -180 -249 9 -7 73 -26 90 -26 10 0
29 19 46 45 32 52 37 53 143 22 l75 -22 9 -63 10 -62 49 -15 c28 -8 51 -14 53
-12 3 3 -54 537 -63 582 -16 81 -32 67 -232 -200z m168 -63 l1 -84 -32 7 c-18
4 -47 13 -65 19 l-33 11 58 87 c66 100 69 98 71 -40z"/>
<path d="M6134 2882 c-10 -6 -95 -543 -94 -596 0 -16 5 -18 42 -12 58 9 68 21
68 76 0 26 6 52 13 57 12 10 146 43 173 43 10 0 48 -47 78 -97 5 -7 101 26 99
34 -4 21 -346 503 -356 503 -7 0 -17 -4 -23 -8z m115 -271 c28 -46 50 -85 49
-86 -9 -6 -120 -26 -124 -22 -3 3 -2 50 2 106 4 56 10 98 14 94 4 -4 31 -46
59 -92z"/>
<path d="M5096 2812 c-7 -15 -138 -553 -135 -556 2 -2 24 -6 48 -8 l45 -3 37
150 c20 83 40 143 43 135 3 -8 26 -78 49 -155 60 -194 65 -193 148 6 l64 152
18 -119 c29 -200 24 -189 80 -192 49 -3 49 -3 43 25 -5 25 -86 542 -86 550 0
2 -12 3 -27 3 -27 0 -30 -6 -92 -178 -35 -97 -67 -180 -70 -184 -4 -4 -29 76
-57 179 -48 176 -52 187 -77 194 -15 4 -29 4 -31 1z"/>
<path d="M5640 2815 c-8 -2 -31 -6 -50 -9 l-36 -6 8 -78 c4 -42 14 -167 24
-277 9 -110 19 -203 23 -207 10 -10 203 11 248 28 91 33 134 110 112 197 -10
40 -49 97 -67 97 -4 0 -13 4 -20 9 -11 6 -8 16 13 47 45 66 20 148 -56 186
-31 16 -147 23 -199 13z m163 -106 c9 -12 17 -30 17 -41 0 -31 -45 -68 -85
-69 -19 -1 -41 -2 -47 -3 -9 -1 -15 21 -18 66 -5 65 -4 67 20 72 46 8 95 -3
113 -25z m15 -195 c42 -12 66 -89 42 -135 -16 -28 -63 -49 -114 -49 l-45 0 -6
58 c-3 31 -7 71 -10 89 -2 17 -1 34 2 37 8 8 102 7 131 0z"/>
</g>
</svg>
